<svg width="61" height="61" viewBox="0 0 61 61" fill="none" xmlns="http://www.w3.org/2000/svg">
<path d="M56.8086 44.7052L58.8113 42.703C60.0717 41.4421 60.0717 39.3907 58.8113 38.1298C58.2004 37.5194 57.3886 37.1829 56.5245 37.1829C55.8762 37.1829 55.2566 37.3725 54.7301 37.7256L54.3082 36.3092L56.4759 34.141C57.7368 32.88 57.7368 30.8287 56.4759 29.5683C55.3154 28.4073 53.4857 28.3181 52.2184 29.2949L49.6496 20.6709C50.6755 19.6829 51.6582 18.7216 52.5842 17.7956C55.2529 15.1263 57.4228 12.3017 58.6944 9.84077C60.8429 5.68152 59.9435 3.45824 58.8108 2.3255C57.6786 1.19276 55.4553 0.293943 51.2955 2.44246C48.8351 3.71352 46.01 5.8834 43.3413 8.55262C42.4152 9.47868 41.4534 10.4608 40.4659 11.4867L31.8414 8.91792C32.8182 7.65113 32.729 5.82145 31.5685 4.6604C30.3076 3.40003 28.2563 3.39949 26.9959 4.6604L24.8276 6.82868L23.4108 6.40677C23.7638 5.87966 23.9534 5.26015 23.9534 4.6118C23.9534 3.74823 23.6169 2.93593 23.0065 2.3255C21.7461 1.06459 19.6942 1.06459 18.4339 2.3255L16.4317 4.32768L6.22636 1.28782C5.86267 1.17995 5.4696 1.27928 5.20204 1.54738L2.57501 4.17441C2.13387 4.61501 2.19209 5.36856 2.69517 5.73653L28.4443 24.584C22.6385 31.1299 17.0458 37.6839 13.0976 42.3665L5.52354 39.4532C5.14276 39.3069 4.71177 39.3982 4.42338 39.6866L1.30982 42.8002C0.907143 43.2034 0.907143 43.8565 1.30982 44.2592L16.8771 59.8265C17.2744 60.2244 17.9388 60.2244 18.3367 59.8265L21.4497 56.7135C21.7381 56.4251 21.8299 55.9935 21.6831 55.6128L18.7703 48.0393C23.4529 44.091 30.0064 38.4983 36.5529 32.6921L38.5983 35.4873C38.9615 35.9835 39.6979 36.0475 40.1433 35.6246C40.5145 35.2721 40.5658 34.6809 40.264 34.2686L38.1016 31.3142C41.5249 28.2588 44.9055 25.1763 47.9726 22.2715L57.6952 54.9105L56.3541 56.251L42.9915 37.9947C42.655 37.5349 42.0093 37.435 41.5495 37.7715C41.0892 38.1085 40.9893 38.7542 41.3263 39.214L55.4003 58.4417C55.7683 58.9448 56.5218 59.003 56.9624 58.5618L59.5895 55.9348C59.8576 55.6672 59.9569 55.2736 59.849 54.9105L56.8086 44.7052ZM28.4555 6.11998C28.9062 5.66924 29.6587 5.66924 30.1094 6.11998C30.5655 6.57607 30.5655 7.31788 30.1094 7.77396L29.6256 8.25782L27.0765 7.49839L28.4555 6.11998ZM19.8934 3.78508C20.349 3.329 21.0913 3.329 21.5474 3.78508C22.0035 4.24117 22.0035 4.98297 21.5474 5.43906L21.2291 5.75682L18.6806 4.99793L19.8934 3.78508ZM4.88534 4.78217L6.22636 3.44168L38.8653 13.1637C35.9606 16.2313 32.878 19.6119 29.8221 23.0352L4.88534 4.78217ZM5.40872 41.6204L11.6919 44.0371C10.1159 45.9137 8.90734 47.3658 8.19437 48.2251L3.49893 43.5297L5.40872 41.6204ZM9.66036 49.6911C13.2578 45.3508 32.2729 22.5396 44.8009 10.0117C47.2864 7.52563 49.9994 5.43532 52.243 4.27641C53.9274 3.4059 56.1811 2.61443 57.3518 3.78508C58.5224 4.95574 57.7304 7.20946 56.8604 8.89388C55.7015 11.1375 53.6107 13.8499 51.1246 16.336C38.5978 28.8629 15.786 47.8785 11.4457 51.4765L9.66036 49.6911ZM19.5164 55.7281L17.6071 57.6374L12.9117 52.9419C13.7705 52.2295 15.2231 51.0209 17.0998 49.4449L19.5164 55.7281ZM55.6978 39.5894C56.1539 39.1333 56.8957 39.1333 57.3518 39.5894C57.8078 40.0455 57.8078 40.7873 57.3518 41.2434L56.1389 42.4562L55.3795 39.9077L55.6978 39.5894ZM53.3629 31.0274C53.8184 30.5713 54.5608 30.5718 55.0169 31.0274C55.4676 31.4781 55.4676 32.2306 55.0169 32.6814L53.6379 34.0603L52.8785 31.5112L53.3629 31.0274Z" fill="#454545" stroke="#454545"/>
</svg>
